<svg width="32" height="32" viewBox="0 0 32 32" fill="none" xmlns="http://www.w3.org/2000/svg">
<path d="M17.56 25.1974L29.6975 26.3524C30.84 26.4624 31.1325 25.8249 31.1325 25.2849L31.12 24.6299L16.1925 22.5249C16.1925 23.2724 16.8 25.1974 17.56 25.1974Z" fill="#B66B12"/>
<path d="M18.0025 24.6275L19.9125 24.795L30.14 25.7825C30.69 25.7825 31.1325 25.345 31.1325 24.805L30.59 8.23998C30.59 7.69998 30.145 7.26248 29.5975 7.26248L18.0025 6.16748C17.2425 6.16748 16.625 6.77498 16.625 7.52248V23.2725C16.625 24.02 17.24 24.6275 18.0025 24.6275Z" fill="#F3982C"/>
<path d="M14.44 25.1975L2.30249 26.3525C1.15999 26.4625 0.867493 25.825 0.867493 25.285L0.879993 24.63L15.8075 22.5225C15.8075 23.2725 15.2 25.1975 14.44 25.1975Z" fill="#B66B12"/>
<path d="M13.9975 24.6274L12.1025 24.7949L1.85999 25.7849C1.30999 25.7849 0.867493 25.3474 0.867493 24.8074L1.40999 8.24242C1.40999 7.70242 1.85499 7.26492 2.40249 7.26492L13.9975 6.16992C14.7575 6.16992 15.375 6.77742 15.375 7.52492V23.2749C15.375 24.0199 14.76 24.6274 13.9975 24.6274Z" fill="#F3982C"/>
<path d="M19.6875 20.9199H12.3175L12.0925 24.8024L14.3925 25.0174C14.3925 25.0174 14.885 26.2474 16 26.2474C17.115 26.2474 17.6075 25.0174 17.6075 25.0174L19.9075 24.8024L19.6875 20.9199Z" fill="#424242"/>
<path d="M19.885 25.1075L17.7425 24.9225" stroke="#616161" stroke-width="2.5" stroke-miterlimit="10"/>
<path d="M12.115 25.1075L14.2575 24.9225" stroke="#616161" stroke-width="2.5" stroke-miterlimit="10"/>
<path d="M29.9125 8.20496L28.9125 6.82996L16 21.505L3.08748 6.82996L2.08748 8.20496L1.94748 24.5425C1.94748 24.5425 4.60248 24.875 8.14998 24.515C11.24 24.2025 12.695 23.4025 13.7275 23.61C14.9675 23.86 15.1925 24.6225 15.2325 24.7525C15.345 25.1125 15.5675 25.3925 16 25.3925C16.4325 25.3925 16.625 25.2425 16.7575 24.7975C16.7975 24.6675 17.0325 23.8625 18.2725 23.6125C19.305 23.405 20.76 24.205 23.85 24.5175C27.3975 24.8775 30.0525 24.545 30.0525 24.545L29.9125 8.20496Z" fill="#94C6D6"/>
<path d="M28.575 22.9675L28.615 16.37H29.9825L30.0525 24.5425C30.0525 24.5425 28.965 24.12 28.575 22.9675Z" fill="url(#paint0_linear_1878_1183)"/>
<path d="M28.6375 19.1224L28.575 22.9699C28.575 22.9699 25.585 22.8149 20.8225 21.9899C17.7075 21.4499 16 23.1799 16 23.1799L15.9725 19.1224H28.6375Z" fill="url(#paint1_linear_1878_1183)"/>
<path d="M3.36249 19.1224L3.42499 22.9699C3.42499 22.9699 6.41499 22.8149 11.1775 21.9899C14.2925 21.4499 16 23.1799 16 23.1799L15.9725 19.1224H3.36249Z" fill="url(#paint2_linear_1878_1183)"/>
<path d="M3.42498 22.9675L3.38498 16.37H2.01498L1.94748 24.5425C1.94748 24.5425 3.03248 24.12 3.42498 22.9675Z" fill="url(#paint3_linear_1878_1183)"/>
<path d="M28.9125 6.82995C28.9125 6.82995 22.2775 5.58245 19.365 5.41995C16.625 5.26745 16.0625 6.66245 16.0075 6.82995H15.9975C15.94 6.66245 15.3775 5.26995 12.6375 5.41995C9.72498 5.58245 3.08998 6.82995 3.08998 6.82995L2.79498 22.93C2.79498 22.93 10.695 21.275 12.6075 21.49C14.52 21.705 16 23.18 16 23.18C16 23.18 17.4825 21.705 19.395 21.49C21.3075 21.275 29.2075 22.93 29.2075 22.93L28.9125 6.82995Z" fill="#F5F5F5"/>
<path opacity="0.26" d="M13.405 5.42249L12.055 21.4725C12.2675 21.4675 12.455 21.4725 12.605 21.49C14.515 21.7025 16 23.18 16 23.18L15.9575 6.82999C15.9575 6.82999 15.6325 5.54999 13.405 5.42249Z" fill="#94C6D6"/>
<g opacity="0.5">
<path d="M6.3275 7.54504C5.6525 7.66254 5.1 7.76254 4.785 7.81754C4.785 7.97254 4.785 8.14254 4.7825 8.32504C5.06 8.27504 5.625 8.17254 6.3275 8.05004V7.54504Z" fill="#757575"/>
<path d="M12.4125 6.74001V7.23751C13.745 7.23501 14.4825 7.57001 14.725 7.70501C14.725 7.49751 14.7275 7.31251 14.7275 7.15001C14.315 6.96501 13.56 6.73751 12.4125 6.74001Z" fill="#757575"/>
<path d="M11.3275 6.80249C10.245 6.91249 8.73751 7.14249 7.41251 7.36249V7.86999C8.72751 7.65249 10.2375 7.41999 11.3275 7.30499V6.80249Z" fill="#757575"/>
<path d="M8.665 8.95996C7.05 9.20996 5.43 9.49996 4.78 9.61746C4.78 9.78246 4.78 9.95246 4.78 10.125C5.345 10.0225 7.0025 9.72246 8.665 9.46496V8.95996Z" fill="#757575"/>
<path d="M11.6725 8.57001C11.145 8.61251 10.4725 8.69751 9.75 8.79751V9.30251C10.4875 9.19751 11.1775 9.11251 11.7125 9.06751C13.5075 8.92001 14.455 9.36001 14.72 9.51001C14.72 9.31751 14.72 9.13251 14.72 8.95251C14.23 8.73501 13.2475 8.44001 11.6725 8.57001Z" fill="#757575"/>
<path d="M6.595 11.0975C5.805 11.2325 5.145 11.35 4.78 11.4175C4.78 11.585 4.78 11.755 4.78 11.925C5.1075 11.865 5.7775 11.745 6.595 11.605V11.0975Z" fill="#757575"/>
<path d="M14.72 10.7601C14.2325 10.5401 13.2475 10.2401 11.6575 10.3726C10.64 10.4551 9.08249 10.6876 7.67999 10.9176V11.4251C9.09499 11.1926 10.675 10.9576 11.7 10.8726C13.525 10.7226 14.475 11.1801 14.72 11.3226C14.72 11.1301 14.72 10.9451 14.72 10.7601Z" fill="#757575"/>
<path d="M14.7225 12.5675C14.24 12.3475 13.25 12.04 11.6475 12.1725C11.485 12.185 11.31 12.2025 11.125 12.2225V12.725C11.3275 12.7025 11.515 12.685 11.69 12.67C13.55 12.5175 14.5 12.995 14.725 13.13C14.7225 12.9425 14.7225 12.755 14.7225 12.5675Z" fill="#757575"/>
<path d="M10.0375 12.3575C8.0825 12.625 5.6475 13.0575 4.7825 13.215C4.7825 13.385 4.7825 13.5525 4.7825 13.7225C5.545 13.5825 8.0375 13.135 10.0375 12.86V12.3575Z" fill="#757575"/>
<path d="M7.0625 14.6174C6.08 14.7824 5.23 14.9349 4.7825 15.0149C4.7825 15.1849 4.7825 15.3549 4.7825 15.5224C5.1875 15.4474 6.05 15.2924 7.0625 15.1224V14.6174Z" fill="#757575"/>
<path d="M14.725 14.3775C14.2475 14.1575 13.2525 13.8425 11.635 13.975C10.735 14.05 9.41499 14.2375 8.14999 14.44V14.945C9.42749 14.74 10.77 14.5475 11.675 14.4725C13.5825 14.315 14.535 14.825 14.725 14.94C14.725 14.7525 14.725 14.565 14.725 14.3775Z" fill="#757575"/>
<path d="M14.73 17.995C14.275 17.7775 13.29 17.45 11.665 17.5725V18.075C13.7375 17.9075 14.6775 18.5275 14.73 18.565C14.73 18.38 14.73 18.19 14.73 17.995Z" fill="#757575"/>
<path d="M6.59501 18.295C5.82501 18.4275 5.17001 18.5425 4.78751 18.6125C4.78751 18.7875 4.78751 18.955 4.78751 19.12C5.14001 19.055 5.80001 18.9375 6.59501 18.8V18.295Z" fill="#757575"/>
<path d="M7.67999 18.115V18.6225C8.64999 18.465 9.69249 18.305 10.58 18.1925V17.6875C9.69749 17.7975 8.65499 17.955 7.67999 18.115Z" fill="#757575"/>
<path d="M9.41751 19.645C7.62751 19.905 5.61501 20.2625 4.79001 20.4125C4.79001 20.5975 4.79001 20.7675 4.79001 20.92C5.53751 20.7825 7.58751 20.4175 9.41751 20.15V19.645Z" fill="#757575"/>
<path d="M14.7325 19.805C14.28 19.585 13.2725 19.2425 11.5925 19.38C11.275 19.405 10.905 19.4475 10.5025 19.4975V20C10.92 19.9475 11.305 19.905 11.6325 19.8775C13.7725 19.7 14.7125 20.365 14.7225 20.37L14.735 20.355C14.735 20.1825 14.735 20 14.7325 19.805Z" fill="#757575"/>
<path d="M9.045 16.1C7.34 16.355 5.5325 16.6775 4.785 16.815C4.785 16.9875 4.785 17.155 4.785 17.3225C5.455 17.2 7.2975 16.87 9.045 16.605V16.1Z" fill="#757575"/>
<path d="M14.7275 16.185C14.2575 15.965 13.26 15.64 11.62 15.775C11.2 15.81 10.6875 15.87 10.1325 15.945V16.45C10.705 16.3725 11.2325 16.31 11.6625 16.275C13.6325 16.1125 14.585 16.66 14.73 16.7525C14.7275 16.5675 14.7275 16.3775 14.7275 16.185Z" fill="#757575"/>
</g>
<g opacity="0.5">
<path d="M22.1025 7.42736C24.1725 7.70236 26.8775 8.19236 27.6125 8.32486C27.6125 8.13986 27.6125 7.97236 27.61 7.81736C26.75 7.65986 24.1175 7.18986 22.1 6.92236V7.42736H22.1025Z" fill="#757575"/>
<path d="M21.015 6.79741C20.9075 6.78741 20.805 6.77741 20.7075 6.76991C19.14 6.63991 18.16 6.93241 17.6675 7.14991C17.6675 7.31241 17.67 7.49991 17.67 7.70491C17.95 7.54991 18.8975 7.12241 20.6675 7.26741C20.7775 7.27741 20.895 7.28741 21.015 7.29991V6.79741Z" fill="#757575"/>
<path d="M25.59 9.76989C26.5075 9.92739 27.2675 10.0624 27.615 10.1274C27.615 9.95239 27.615 9.78489 27.615 9.61989C27.2225 9.54739 26.4775 9.41489 25.59 9.26489V9.76989Z" fill="#757575"/>
<path d="M24.505 9.08239C23.1525 8.86489 21.6925 8.64989 20.7225 8.56989C19.1475 8.43989 18.165 8.73489 17.6725 8.95239C17.6725 9.13239 17.6725 9.31739 17.6725 9.50989C17.9375 9.35989 18.885 8.91989 20.68 9.06739C21.6575 9.14739 23.14 9.36739 24.5025 9.58739V9.08239H24.505Z" fill="#757575"/>
<path d="M24.295 10.8474V11.3524C25.7475 11.5849 27.1 11.8299 27.615 11.9249C27.615 11.7524 27.615 11.5849 27.615 11.4174C27.0325 11.3124 25.705 11.0749 24.295 10.8474Z" fill="#757575"/>
<path d="M22.1 12.3248C21.5975 12.2598 21.1325 12.2048 20.7475 12.1748C19.145 12.0423 18.155 12.3498 17.6725 12.5698C17.6725 12.7573 17.6725 12.9448 17.6725 13.1323C17.8975 12.9998 18.85 12.5198 20.7075 12.6723C21.1025 12.7048 21.5825 12.7598 22.1 12.8298V12.3248Z" fill="#757575"/>
<path d="M23.1875 12.4773V12.9823C25 13.2523 26.9525 13.6048 27.6125 13.7248C27.6125 13.5548 27.6125 13.3848 27.6125 13.2173C26.8675 13.0798 24.955 12.7398 23.1875 12.4773Z" fill="#757575"/>
<path d="M23.4075 14.31C22.42 14.16 21.4625 14.0325 20.7625 13.975C19.1425 13.8425 18.1475 14.1575 17.6725 14.3775C17.6725 14.565 17.6725 14.755 17.6725 14.9425C17.8625 14.825 18.815 14.3175 20.7225 14.475C21.43 14.5325 22.4075 14.665 23.41 14.8175V14.31H23.4075Z" fill="#757575"/>
<path d="M24.4925 14.48V14.9875C25.8525 15.2075 27.0975 15.4325 27.61 15.525C27.61 15.3575 27.61 15.1875 27.61 15.0175C27.04 14.9125 25.815 14.6925 24.4925 14.48Z" fill="#757575"/>
<path d="M26.26 16.575V17.0825C26.85 17.185 27.3325 17.2725 27.6075 17.3225C27.6075 17.155 27.6075 16.985 27.6075 16.815C27.3075 16.76 26.8325 16.675 26.26 16.575Z" fill="#757575"/>
<path d="M22.3225 17.7524C21.75 17.6749 21.22 17.6124 20.79 17.5774C19.13 17.4399 18.1275 17.7749 17.6675 17.9949C17.6675 18.1899 17.6675 18.3799 17.6675 18.5649C17.72 18.5274 18.665 17.9024 20.7525 18.0749C21.1925 18.1099 21.7375 18.1749 22.3275 18.2549V17.7524H22.3225Z" fill="#757575"/>
<path d="M23.4075 17.9073V18.4123C25.1275 18.6723 26.9325 18.9974 27.6075 19.1199C27.6075 18.9549 27.6075 18.7848 27.6075 18.6123C26.8575 18.4773 25.0875 18.1623 23.4075 17.9073Z" fill="#757575"/>
<path d="M24.295 19.8449C23.0275 19.6424 21.7025 19.4524 20.8025 19.3774C19.12 19.2399 18.115 19.5849 17.6625 19.8024C17.6625 19.9974 17.6625 20.1799 17.6625 20.3524L17.675 20.3674C17.6825 20.3624 18.6225 19.6974 20.765 19.8749C21.6725 19.9499 23.02 20.1449 24.3 20.3499V19.8449H24.295Z" fill="#757575"/>
<path d="M25.3825 20.0249V20.5324C26.355 20.6949 27.185 20.8449 27.605 20.9224C27.605 20.7699 27.605 20.5999 27.605 20.4149C27.1475 20.3299 26.3275 20.1824 25.3825 20.0249Z" fill="#757575"/>
<path d="M20.7325 15.7725C19.1175 15.645 18.1325 15.9675 17.6675 16.185C17.6675 16.375 17.6675 16.565 17.6675 16.7525C17.8125 16.66 18.7625 16.1125 20.7325 16.275V15.7725Z" fill="#757575"/>
<path d="M21.82 15.8875V16.39C22.85 16.52 24.0875 16.715 25.175 16.895V16.3875C24.08 16.2075 22.8425 16.015 21.82 15.8875Z" fill="#757575"/>
<path d="M19.93 10.3424C18.81 10.3499 18.0725 10.5799 17.675 10.7599C17.675 10.9449 17.675 11.1299 17.675 11.3199C17.885 11.1999 18.6025 10.8524 19.93 10.8399V10.3424Z" fill="#757575"/>
<path d="M21.015 10.3975V10.9C21.6375 10.9625 22.41 11.0675 23.2075 11.185V10.68C22.4075 10.56 21.6375 10.4575 21.015 10.3975Z" fill="#757575"/>
</g>
<path d="M17.79 24.6125C17.51 24.5875 17.2525 24.76 17.1625 25.0275C17.0275 25.435 16.7125 25.9675 16 25.9675C15.28 25.9675 14.9625 25.4325 14.825 25.025C14.735 24.7625 14.4825 24.5925 14.205 24.615L14.1075 24.6225L14.11 24.7025C14.11 25.745 14.955 26.59 15.9975 26.59C17.04 26.59 17.885 25.745 17.885 24.7025C17.885 24.6775 17.8825 24.62 17.8825 24.62L17.79 24.6125Z" fill="#616161"/>
<defs>
<linearGradient id="paint0_linear_1878_1183" x1="29.3109" y1="22.0502" x2="29.3727" y2="17.7245" gradientUnits="userSpaceOnUse">
<stop offset="0.2665" stop-color="#82AEC0"/>
<stop offset="1" stop-color="#82AEC0" stop-opacity="0"/>
</linearGradient>
<linearGradient id="paint1_linear_1878_1183" x1="17.4793" y1="21.1502" x2="28.1822" y2="21.1502" gradientUnits="userSpaceOnUse">
<stop stop-color="#2F7889"/>
<stop offset="1" stop-color="#82AEC0"/>
</linearGradient>
<linearGradient id="paint2_linear_1878_1183" x1="14.4948" y1="21.1502" x2="3.81584" y2="21.1502" gradientUnits="userSpaceOnUse">
<stop stop-color="#2F7889"/>
<stop offset="1" stop-color="#82AEC0"/>
</linearGradient>
<linearGradient id="paint3_linear_1878_1183" x1="2.68815" y1="22.0502" x2="2.62635" y2="17.7245" gradientUnits="userSpaceOnUse">
<stop offset="0.2665" stop-color="#82AEC0"/>
<stop offset="1" stop-color="#82AEC0" stop-opacity="0"/>
</linearGradient>
</defs>
</svg>
