<svg width="24" height="24" viewBox="0 0 24 24" fill="none" xmlns="http://www.w3.org/2000/svg">
<rect x="5" y="4.85001" width="15" height="15" fill="#E3A311"/>
<rect x="3.5" y="3.35001" width="15" height="15" stroke="#151C55"/>
<path d="M8.96802 6.91751C8.94468 6.95584 8.92052 6.98418 8.89552 7.00251C8.87218 7.01918 8.84135 7.02751 8.80302 7.02751C8.76635 7.02751 8.72635 7.01501 8.68302 6.99001C8.64135 6.96334 8.59218 6.93501 8.53552 6.90501C8.47885 6.87501 8.41385 6.84751 8.34052 6.82251C8.26718 6.79584 8.18135 6.78251 8.08302 6.78251C7.90968 6.78251 7.77968 6.82168 7.69302 6.90001C7.60635 6.97668 7.56302 7.07751 7.56302 7.20251C7.56302 7.28251 7.58635 7.34918 7.63302 7.40251C7.68135 7.45418 7.74385 7.49918 7.82052 7.53751C7.89885 7.57584 7.98718 7.61001 8.08552 7.64001C8.18385 7.67001 8.28468 7.70334 8.38802 7.74001C8.49135 7.77501 8.59218 7.81668 8.69052 7.86501C8.78885 7.91334 8.87635 7.97418 8.95302 8.04751C9.03135 8.12084 9.09385 8.21084 9.14052 8.31751C9.18885 8.42251 9.21302 8.55084 9.21302 8.70251C9.21302 8.86751 9.18385 9.02251 9.12552 9.16751C9.06885 9.31084 8.98635 9.43668 8.87802 9.54501C8.76968 9.65168 8.63552 9.73584 8.47552 9.79751C8.31718 9.85918 8.13718 9.89001 7.93552 9.89001C7.82052 9.89001 7.70552 9.87834 7.59052 9.85501C7.47718 9.83168 7.36718 9.79918 7.26052 9.75751C7.15552 9.71584 7.05635 9.66584 6.96302 9.60751C6.86968 9.54918 6.78802 9.48418 6.71802 9.41251L6.93802 9.05751C6.95635 9.03084 6.98052 9.00918 7.01052 8.99251C7.04052 8.97418 7.07218 8.96501 7.10552 8.96501C7.15052 8.96501 7.19802 8.98168 7.24802 9.01501C7.29802 9.04834 7.35552 9.08501 7.42052 9.12501C7.48552 9.16501 7.56052 9.20168 7.64552 9.23501C7.73218 9.26834 7.83552 9.28501 7.95552 9.28501C8.13052 9.28501 8.26552 9.24501 8.36052 9.16501C8.45718 9.08501 8.50552 8.96584 8.50552 8.80751C8.50552 8.71584 8.48135 8.64168 8.43302 8.58501C8.38635 8.52834 8.32468 8.48084 8.24802 8.44251C8.17135 8.40418 8.08385 8.37168 7.98552 8.34501C7.88718 8.31668 7.78635 8.28584 7.68302 8.25251C7.57968 8.21918 7.47885 8.17918 7.38052 8.13251C7.28218 8.08584 7.19468 8.02418 7.11802 7.94751C7.04135 7.87084 6.97885 7.77584 6.93052 7.66251C6.88385 7.54918 6.86052 7.40834 6.86052 7.24001C6.86052 7.10501 6.88718 6.97418 6.94052 6.84751C6.99385 6.72084 7.07218 6.60834 7.17552 6.51001C7.27885 6.41168 7.40552 6.33251 7.55552 6.27251C7.70718 6.21251 7.88052 6.18251 8.07552 6.18251C8.29385 6.18251 8.49552 6.21668 8.68052 6.28501C8.86718 6.35168 9.02468 6.44501 9.15302 6.56501L8.96802 6.91751Z" fill="black"/>
<path d="M8.03 15.8775C8.15167 15.8775 8.26083 15.8575 8.3575 15.8175C8.45417 15.7758 8.53583 15.7175 8.6025 15.6425C8.66917 15.5675 8.72 15.4767 8.755 15.37C8.79 15.2633 8.8075 15.1433 8.8075 15.01V12.85H9.5575V15.01C9.5575 15.23 9.52167 15.4325 9.45 15.6175C9.38 15.8008 9.27917 15.9592 9.1475 16.0925C9.01583 16.2258 8.85583 16.33 8.6675 16.405C8.47917 16.48 8.26667 16.5175 8.03 16.5175C7.79333 16.5175 7.58 16.48 7.39 16.405C7.20167 16.33 7.04167 16.2258 6.91 16.0925C6.77833 15.9592 6.67667 15.8008 6.605 15.6175C6.535 15.4325 6.5 15.23 6.5 15.01V12.85H7.25V15.01C7.25 15.1433 7.2675 15.2633 7.3025 15.37C7.3375 15.4767 7.38833 15.5675 7.455 15.6425C7.52167 15.7175 7.60333 15.7758 7.7 15.8175C7.79667 15.8575 7.90667 15.8775 8.03 15.8775Z" fill="black"/>
<path d="M17.0021 6.2225V9.85H16.3396V7.6225C16.3396 7.57584 16.3404 7.52584 16.3421 7.4725C16.3454 7.41917 16.3504 7.365 16.3571 7.31L15.3196 9.2775C15.2629 9.38584 15.1754 9.44 15.0571 9.44H14.9521C14.8937 9.44 14.8421 9.42667 14.7971 9.4C14.7521 9.37167 14.7162 9.33084 14.6896 9.2775L13.6471 7.3025C13.6521 7.36084 13.6562 7.4175 13.6596 7.4725C13.6629 7.52584 13.6646 7.57584 13.6646 7.6225V9.85H13.0021V6.2225H13.5721C13.6037 6.2225 13.6321 6.22334 13.6571 6.225C13.6821 6.22667 13.7037 6.23167 13.7221 6.24C13.7421 6.24667 13.7596 6.25834 13.7746 6.275C13.7912 6.29 13.8071 6.31167 13.8221 6.34L14.8371 8.275C14.8687 8.33334 14.8979 8.39334 14.9246 8.455C14.9529 8.51667 14.9796 8.58 15.0046 8.645C15.0296 8.57834 15.0554 8.51334 15.0821 8.45C15.1104 8.38667 15.1404 8.32584 15.1721 8.2675L16.1796 6.34C16.1946 6.31167 16.2104 6.29 16.2271 6.275C16.2437 6.25834 16.2612 6.24667 16.2796 6.24C16.2996 6.23167 16.3212 6.22667 16.3446 6.225C16.3696 6.22334 16.3987 6.2225 16.4321 6.2225H17.0021Z" fill="black"/>
<rect x="11" y="11.85" width="10" height="10" rx="1" fill="#009DD9"/>
<path d="M19.5 16.85V19.35C19.5 19.9023 19.0523 20.35 18.5 20.35H13.5C12.9477 20.35 12.5 19.9023 12.5 19.35V14.35C12.5 13.7977 12.9477 13.35 13.5 13.35L16 13.35" stroke="#151C55"/>
<line x1="17" y1="13.35" x2="19" y2="13.35" stroke="white"/>
<line x1="14.6464" y1="18.4462" x2="19.5962" y2="13.4965" stroke="white"/>
<line x1="19.5" y1="12.85" x2="19.5" y2="15.85" stroke="white"/>
</svg>
